<svg xmlns="http://www.w3.org/2000/svg" viewBox="0 0 140.623 140.623">
  <defs>
    <style>
      .cls-1 {
        fill: none;
        stroke: #fff;
        stroke-miterlimit: 10;
        stroke-width: 10px;
      }

      .cls-2 {
        fill: #fff;
      }
    </style>
  </defs>
  <g id="Logo" transform="translate(5 5)">
    <rect id="Rectangle_110" data-name="Rectangle 110" class="cls-1" width="130.623" height="130.623" transform="translate(0 0)"/>
    <path id="Path_78" data-name="Path 78" class="cls-2" d="M274.16,183.468V99h61.3v15.209h-43.3V142.92H329.1V158.13H292.163v25.328Z" transform="translate(-226.173 -67.412)"/>
    <path id="Path_79" data-name="Path 79" class="cls-2" d="M248.41,184.038V82.54h34.3a66.455,66.455,0,0,1,14.744,1.511A32.984,32.984,0,0,1,309.247,89.1a24.479,24.479,0,0,1,7.843,9.229,31.907,31.907,0,0,1,2.866,14.278q0,11.64-5.5,18.779a30.377,30.377,0,0,1-14.671,10.243L323.99,184H303.856l-21.883-39.73h-15.52V184Zm18-54.008h14.433q10.346,0,15.9-4.345t5.515-13.036q0-8.846-5.515-12.26t-15.9-3.414H266.413Z" transform="translate(-227.065 -67.983)"/>
    <path id="Path_80" data-name="Path 80" class="cls-2" d="M274.16,99h61.3v15.209h-43.3" transform="translate(-226.173 -67.412)"/>
  </g>
</svg>
